<svg data-v-423bf9ae="" xmlns="http://www.w3.org/2000/svg" viewBox="0 0 261 90" class="iconLeft"><!----><!----><!----><g data-v-423bf9ae="" id="e6be284c-2a9e-47f4-9419-f7c6407a28ea" fill="black" transform="matrix(5.847953085917131,0,0,5.847953085917131,106.491227695001,14.999999046325684)"><path d="M6.72 6.86L6.72 5.26L2.84 5.26L2.84 3.44L6.72 3.44L6.72 1.86L0.60 1.86L0.94 3.16L0.94 10.26L2.84 10.26L2.84 6.86ZM10.00 1.40C10.00 0.83 9.53 0.36 8.96 0.36C8.40 0.36 7.94 0.83 7.94 1.40C7.94 1.96 8.40 2.42 8.96 2.42C9.53 2.42 10.00 1.96 10.00 1.40ZM10.88 10.26L10.88 9.66L9.90 8.96L9.90 3.72L8.04 3.72L8.04 10.26ZM18.90 10.26L18.90 9.66L17.92 8.96L17.92 6.06C17.92 4.52 16.72 3.54 14.94 3.54C13.92 3.54 12.82 3.71 11.82 3.99L11.58 4.06L11.94 5.36L11.94 10.26L13.82 10.26L13.82 5.26C14.13 5.18 14.53 5.12 14.94 5.12C15.62 5.12 16.06 5.49 16.06 6.06L16.06 10.26ZM26.32 10.26L23.49 7L26.32 3.72L22.48 3.72L22.48 4.34L23.18 4.84L21.74 6.54L21.74 0L19.88 0L19.88 10.26L21.74 10.26L21.74 9.02L22.43 8.23L24.12 10.26Z"></path></g><!----><g data-v-423bf9ae="" id="aaeae755-200d-41f8-a18d-0edf7bc6b9af" transform="matrix(2.8125,0,0,2.8125,0,0)" stroke="none" fill="black"><path d="M9.382 8.675h13.943v13.943L32 31.293V0H.707zM22.618 23.325H8.675V9.382L0 .707V32h31.293z"></path></g><!----></svg>